<?xml version="1.0" encoding="UTF-8"?>
<svg xmlns="http://www.w3.org/2000/svg"
 width="345" height="345"
 viewBox="0 -69 345 345">
<!-- Fondo negro cubre todo el canvas cuadrado (sin rayas) -->
<rect x="-100" y="-200" width="600" height="700" fill="#000000"/>
<!-- Color del logo solo en el área original (los huecos del path muestran este color) -->
<rect x="0" y="0" width="345" height="207" fill="#e8ff00"/>
<!-- Path: rectángulo negro con huecos en forma de W -->
<g transform="translate(0,207) scale(0.1,-0.1)" fill="#000000" stroke="none">
<path d="M0 1035 l0 -1035 1725 0 1725 0 0 1035 0 1035 -1725 0 -1725 0 0
-1035z m1520 365 c113 -142 208 -259 211 -260 3 0 99 117 213 260 114 143 212
260 216 260 5 0 67 -80 137 -177 126 -173 702 -991 738 -1046 l17 -27 -235 0
-236 0 -103 148 c-57 81 -164 237 -238 345 -74 108 -138 197 -141 197 -3 0
-20 -21 -38 -47 -59 -84 -325 -423 -332 -423 -6 0 -281 352 -355 454 l-20 28
-235 -349 -235 -348 -238 -3 c-131 -1 -236 1 -234 6 1 4 70 102 152 217 82
116 203 287 269 380 66 94 183 258 260 365 77 107 154 214 171 238 16 23 35
42 40 42 6 0 103 -117 216 -260z m33 -823 l138 -162 -141 -3 c-77 -1 -203 -1
-279 0 l-139 3 129 163 c72 89 135 162 142 161 7 0 74 -73 150 -162z m650 0
c70 -87 127 -160 127 -163 0 -2 -124 -4 -276 -4 -165 0 -274 4 -272 9 8 24
273 321 283 319 6 -2 69 -74 138 -161z"/>
</g>
</svg>